<svg width="53" height="244" viewBox="0 0 53 244" fill="none" xmlns="http://www.w3.org/2000/svg">
<path d="M47.0486 224.272C47.1186 224.092 47.2086 223.922 47.2586 223.742C47.6604 222.079 47.8618 220.373 47.8586 218.662C47.8696 217.026 47.7592 215.392 47.5286 213.772C47.3248 212.158 47.0209 210.558 46.6186 208.982C46.4186 208.192 46.1986 207.402 45.9186 206.612C45.7986 206.222 45.6286 205.822 45.4686 205.432C45.2855 205.035 45.0645 204.657 44.8086 204.302C44.6977 204.134 44.563 203.982 44.4086 203.852C43.8086 203.412 42.3386 204.572 42.3086 205.102C42.3234 205.245 42.3536 205.386 42.3986 205.522C42.4986 205.862 42.5586 206.192 42.6786 206.522C42.7986 206.852 42.9186 207.192 43.0086 207.522C43.2261 208.225 43.4064 208.94 43.5486 209.662C43.8609 211.126 44.078 212.61 44.1986 214.102C44.3414 215.581 44.3848 217.067 44.3286 218.552C44.3104 219.965 44.1258 221.372 43.7786 222.742C43.7786 222.872 43.7286 223.002 43.6986 223.142C43.8386 223.682 46.5986 224.852 47.0486 224.272Z" fill="white"/>
<path d="M50.5724 232.627L44.4098 241.735L39.3141 231.814L50.5724 232.627Z" fill="white"/>
<path d="M48.8254 232.654L42.6615 241.772L46.0989 241.307L41.0033 231.386L38.5281 232.6L49.7864 233.413C50.3815 233.49 51.7981 233.45 52.1924 232.815C52.5866 232.18 52.0976 231.906 51.4082 231.857L40.1499 231.044C39.5747 230.97 37.1055 231.197 37.645 232.254L42.7406 242.176C43.2308 243.146 45.7391 242.38 46.1781 241.711L52.3903 232.609C52.8421 231.84 49.47 231.719 48.8254 232.654Z" fill="white"/>
<path d="M40.959 194.911C40.9383 194.803 40.9115 194.696 40.879 194.591C40.0739 192.645 38.9257 190.86 37.489 189.321C36.7887 188.563 36.0369 187.855 35.239 187.201C34.839 186.881 34.439 186.571 34.029 186.271C33.6401 185.942 33.1921 185.691 32.709 185.531C32.6073 185.477 32.4939 185.45 32.379 185.451C31.919 185.451 30.899 187.041 30.999 187.451C31.039 187.55 31.0966 187.642 31.169 187.721C31.312 187.903 31.4656 188.077 31.629 188.241L32.159 188.661C32.509 188.951 32.829 189.251 33.159 189.551C33.8021 190.153 34.4003 190.801 34.949 191.491C36.0239 192.831 36.8934 194.324 37.529 195.921C37.5675 196.002 37.6144 196.079 37.669 196.151C38.019 196.391 40.839 195.391 40.959 194.911Z" fill="white"/>
<path d="M25.2678 176.162C25.2236 176.088 25.1734 176.018 25.1178 175.952L21.4878 172.572L19.6978 170.862L18.8178 169.992L18.3778 169.562C18.2133 169.425 18.0358 169.304 17.8478 169.202C17.7649 169.15 17.6735 169.112 17.5778 169.092C16.7924 169.4 16.1456 169.983 15.7578 170.732C15.7695 170.833 15.8 170.931 15.8478 171.022C15.9325 171.223 16.0399 171.414 16.1678 171.592L16.5778 172.072L17.4078 173.072L19.0978 174.962C20.2378 176.222 21.4178 177.432 22.6278 178.612C22.6933 178.67 22.7676 178.717 22.8478 178.752C23.8666 178.114 24.7008 177.221 25.2678 176.162Z" fill="white"/>
<path d="M12.5679 160.162C12.5346 160.074 12.491 159.99 12.4379 159.912C11.3279 158.472 10.2179 157.092 9.18788 155.702C8.66788 155.012 8.18789 154.302 7.74789 153.582C7.52789 153.222 7.32788 152.862 7.12788 152.492C7.03788 152.312 6.93788 152.132 6.85788 151.942C6.77788 151.752 6.58788 151.612 6.47788 151.432C6.42723 151.351 6.35885 151.283 6.27788 151.232C5.89788 151.052 4.11788 151.612 3.96788 152.052C3.94821 152.161 3.94821 152.273 3.96788 152.382C4.00803 152.883 4.15102 153.369 4.38788 153.812C4.57788 154.252 4.78788 154.692 5.00788 155.122C5.44788 155.972 5.92788 156.792 6.41788 157.582C7.41788 159.182 8.49788 160.642 9.55788 162.082C9.62295 162.154 9.69313 162.221 9.76788 162.282C10.1479 162.392 12.5679 160.582 12.5679 160.162Z" fill="white"/>
<path d="M4.03754 141.142C4.0474 140.999 4.0474 140.855 4.03754 140.712C3.51245 137.979 3.36107 135.186 3.58754 132.412C3.69575 131.011 3.90969 129.621 4.22754 128.252C4.42754 126.842 5.12754 125.572 5.22754 124.102C5.25292 123.946 5.25292 123.788 5.22754 123.632C5.11754 123.042 3.37754 122.352 2.93754 122.782C2.82606 122.903 2.73489 123.042 2.66754 123.192C2.48031 123.515 2.31333 123.849 2.16754 124.192L1.83754 125.312C1.56578 126.031 1.33868 126.765 1.15754 127.512C0.747328 129.005 0.446528 130.526 0.257541 132.062C-0.150779 135.162 -0.0731763 138.306 0.487545 141.382C0.523611 141.538 0.570388 141.692 0.627544 141.842C0.947544 142.392 3.88754 141.682 4.03754 141.142Z" fill="white"/>
<path d="M10.4997 114.031C10.544 113.976 10.5809 113.915 10.6097 113.851C10.9983 112.913 11.4528 112.004 11.9697 111.131C12.4997 110.201 13.0397 109.261 13.6097 108.351C14.1797 107.441 14.7797 106.531 15.4097 105.671C15.7197 105.251 16.0397 104.811 16.4097 104.431C16.5797 104.231 16.7397 104.041 16.8997 103.871C16.9863 103.783 17.0573 103.682 17.1097 103.571L17.2797 103.311C17.2797 103.231 17.3797 103.171 17.3597 103.101C17.2397 102.811 16.9397 100.881 16.1197 100.991C16.0212 101.01 15.9242 101.037 15.8297 101.071L15.6297 101.181C15.3183 101.331 15.029 101.522 14.7697 101.751C14.5297 101.971 14.3297 102.191 14.1297 102.411C13.6997 102.851 13.3397 103.291 12.9697 103.741C12.2297 104.631 11.5497 105.551 10.8797 106.481C10.2097 107.411 9.57969 108.361 8.96969 109.341C8.33754 110.368 7.77624 111.437 7.28969 112.541C7.23801 112.694 7.20117 112.851 7.17969 113.011C7.18969 113.711 10.2097 114.101 10.4997 114.031Z" fill="white"/>
<path d="M25.9682 96.7517C26.0703 96.7211 26.1705 96.6844 26.2682 96.6417C27.8245 95.7029 29.1832 94.4699 30.2682 93.0117C30.8066 92.3306 31.3009 91.6158 31.7482 90.8717C31.9782 90.4917 32.1982 90.1217 32.3882 89.7317C32.6302 89.3578 32.7841 88.9338 32.8382 88.4917C32.8636 88.3933 32.8636 88.2901 32.8382 88.1917C32.2377 87.6035 31.4469 87.2489 30.6082 87.1917C30.5268 87.2282 30.455 87.2829 30.3982 87.3517C30.2782 87.4917 30.0882 87.6017 30.0082 87.7717C29.9282 87.9417 29.8282 88.0817 29.7282 88.2417C29.5382 88.5517 29.3182 88.8517 29.1082 89.1517C28.6802 89.7523 28.2125 90.3236 27.7082 90.8617C26.779 91.9041 25.6925 92.7949 24.4882 93.5017C24.4367 93.5395 24.3897 93.5831 24.3482 93.6317C24.3182 93.9217 25.5182 96.7017 25.9682 96.7517Z" fill="white"/>
<path d="M39.2474 79.6624C39.3774 79.5024 39.5174 79.3524 39.6274 79.1924C40.7253 77.5688 41.6917 75.86 42.5174 74.0824C43.3136 72.3091 43.9819 70.4811 44.5174 68.6124C45.0608 66.7398 45.4554 64.8272 45.6974 62.8924C45.8174 61.8924 45.8974 60.9524 45.9274 59.9624C45.9274 59.4724 45.9274 58.9624 45.9274 58.4824C45.8891 57.9812 45.8156 57.4833 45.7074 56.9924C45.6686 56.779 45.6048 56.5709 45.5174 56.3724C45.1474 55.6724 43.3074 56.0124 43.0774 56.6524C43.0377 56.8365 43.0176 57.0242 43.0174 57.2124C42.9074 58.0824 42.9174 58.9424 42.8674 59.8224C42.8174 60.7024 42.7074 61.5824 42.5674 62.4524C42.2872 64.2101 41.8658 65.9424 41.3074 67.6324C40.747 69.3201 40.079 70.9702 39.3074 72.5724C38.5375 74.1649 37.6413 75.6931 36.6274 77.1424C36.5274 77.2924 36.4474 77.4624 36.3574 77.6224C36.2174 78.2824 38.6274 80.1024 39.2474 79.6624Z" fill="white"/>
<path d="M44.2861 46.1818C44.3124 46.0836 44.3291 45.9831 44.3361 45.8817C44.3472 43.9557 44.1085 42.0364 43.626 40.1718C43.4143 39.2312 43.1506 38.3031 42.8361 37.3918C42.6761 36.9518 42.4961 36.5017 42.3061 36.0717C42.1569 35.6141 41.9152 35.192 41.596 34.8318C41.5373 34.7417 41.4586 34.6665 41.3661 34.6118C40.5202 34.6391 39.7191 34.9983 39.1361 35.6118C39.1161 35.7074 39.1161 35.8061 39.1361 35.9018C39.1556 36.121 39.1924 36.3383 39.2461 36.5518L39.4661 37.1418C39.6061 37.5418 39.7261 37.9417 39.8361 38.3517C40.0766 39.1558 40.267 39.9741 40.4061 40.8018C40.6832 42.4366 40.8071 44.0938 40.7761 45.7517C40.7712 45.8383 40.7712 45.9252 40.7761 46.0118C41.0161 46.3918 44.0261 46.5318 44.2861 46.1818Z" fill="white"/>
<path d="M39.047 26.7906C39.0518 26.704 39.0518 26.6172 39.047 26.5306C38.8006 24.8532 38.3437 23.2136 37.687 21.6506C37.3567 20.8717 36.9793 20.1136 36.557 19.3806C36.3503 19.0073 36.1303 18.6473 35.897 18.3006C35.6967 17.9106 35.4134 17.5693 35.067 17.3006C35.0002 17.2291 34.9128 17.1801 34.817 17.1606C34.0094 17.3782 33.3025 17.8696 32.817 18.5506C32.7954 18.6359 32.7954 18.7253 32.817 18.8106C32.8559 18.999 32.9128 19.1831 32.987 19.3606C33.087 19.5106 33.167 19.6706 33.257 19.8306C33.437 20.1506 33.597 20.4706 33.747 20.8306C34.0502 21.4808 34.314 22.1487 34.537 22.8306C34.9684 24.1963 35.273 25.5989 35.447 27.0206C35.4631 27.0973 35.4901 27.1714 35.527 27.2406C36.7194 27.3771 37.9272 27.2227 39.047 26.7906Z" fill="white"/>
<path d="M30.5101 10.977C30.4629 10.909 30.4248 10.835 30.397 10.757C29.9626 9.28582 29.7359 7.76116 29.7234 6.22723C29.7094 5.46986 29.7378 4.71229 29.8085 3.9581C29.8476 3.57801 29.8933 3.20546 29.9466 2.82629L30.04 2.26551C30.1002 2.07716 30.1835 1.89697 30.2878 1.72904C30.3198 1.64465 30.3764 1.57181 30.4503 1.52002C31.2808 1.41625 32.123 1.57562 32.8581 1.97564C32.9099 2.03688 32.9398 2.11365 32.943 2.1938C33.0233 2.51205 33.0377 2.84335 32.9854 3.16738C32.9651 3.47784 32.9579 3.80335 32.9582 4.12226C32.9587 4.75688 32.9952 5.39096 33.0675 6.02146C33.2069 7.2703 33.4678 8.50257 33.8465 9.70074C33.886 9.74585 33.8523 9.82867 33.8617 9.90016C32.8322 10.4896 31.6904 10.8565 30.5101 10.977Z" fill="white"/>
</svg>
