<?xml version="1.0" encoding="UTF-8"?><svg id="Layer_3" xmlns="http://www.w3.org/2000/svg" width="128" height="128" viewBox="0 0 128 128"><defs><style>.cls-1{fill:#231f20;}</style></defs><path class="cls-1" d="m74.04,29.42c-.49.41-2.23,2.48-1.15,3.89,1.09,1.41-1.79,1.53-1.79,1.53,0,0-2.57-1.9-1.85-3.56s2.51-3.78,3.64-3.29c1.13.48,1.15,1.43,1.15,1.43Z"/><path class="cls-1" d="m88.18,90.53s-3.38,2.15-2.97,3.2,2.97.22,2.97.22l2.76-3.42h-2.76Z"/><path class="cls-1" d="m50.32,90.53l2.03-.08s2.7,1,2.88,2.69c.17,1.7-3.15,1.59-3.15,1.59l-2.61-3.57.85-.63Z"/><path class="cls-1" d="m102.64,107.92c-1.67-.02-3.35-.03-5.03-.02-.61,0-1.23.05-1.84.04-2.17-.05-4.34-.09-6.51-.14-.96-.05-1.93-.05-2.88-.06-.61-.01-1.23,0-1.84-.04-.61-.06-1.23-.15-1.84-.24-.38-.06-.33-.09,0-.19.32-.1.91-.35,1.61-.52,1.24-.24,2.48-.31,3.72-.44.62-.05,1.24-.12,1.87-.13.62,0,1.25.02,1.88.03,1.5.05,3.06-.14,4.6-.21,1.69-.07,3.39-.09,5.09-.11l3.14-.03c1.58-.01,3.18.02,4.75-.02,1.22-.01,2.42-.21,3.64-.21.27,0,.53-.02.8-.01.99.09,1.3.37,1.5.77.04.1.1.19.13.28.08.3-.33.57-1.06.81-2.16.54-4.39.46-6.65.48-1.68,0-3.37,0-5.05,0v-.05Z"/><path class="cls-1" d="m52.17,107.38l-5.11-.02c-.62,0-1.24.04-1.87.03-2.2-.05-4.39-.19-6.59-.31-.97-.07-1.95-.08-2.92-.13-.62-.02-1.24-.05-1.86-.13l-.93-.13c-.31-.04-.61-.19-.91-.28-.37-.14-.32-.17.02-.31.17-.07.41-.19.7-.34.29-.11.62-.17.97-.18.63.01,1.26-.08,1.88-.04l1.88.06c1.25.04,2.51.09,3.78.17,1.51.1,3.09-.04,4.64-.05l5.13-.06,3.17-.05c1.6-.02,3.21-.04,4.8-.07,1.24-.04,2.46-.11,3.71-.08.28.02.55.01.83.07,1.03.18,1.34.44,1.47.82.03.09.08.18.08.27.03.28-.42.44-1.13.49-2.11.2-4.34.24-6.63.26-1.7.02-3.42.04-5.12.06v-.04Z"/><path class="cls-1" d="m113.29,106.81c-6.55-.1-8.15-7.31-7.39-12.08h13.75c.51,4.1-.46,12.17-6.36,12.08Z"/><path class="cls-1" d="m63.44,106.81c-6.55-.27-8.15-7.31-7.39-12.08h14.84c.51,4.1-.38,12.37-7.45,12.08Z"/><path class="cls-1" d="m71.19,27.16c1.41-.63,2.94-.45,4.08.03.42.18.86.3,1.22.57.65.44,1.17,1.01,1.61,1.63.22.31.39.66.57.99.12.38.3.71.34,1.11.11.68.18,1.41,0,2.1-.06.22-.1.45-.18.66-.09.2-.22.39-.35.57-.23.39-.63.61-1.13.64-.42-.12-.33-.11-.51-.58-.1-.24-.19-.5-.33-.8-.12-.26-.11-.43-.14-.57,0-.44.09-.62.05-.93,0-.07-.04-.16-.04-.24,0-.08-.02-.17-.04-.27-.02-.1-.03-.21-.04-.33-.04-.11-.07-.23-.1-.36-.19-.61-.82-.99-1.36-1.29-.61-.34-1.28-.52-1.87-.41-.37.05-.73.22-1.06.5-.53.44-.99,1.13-1.08,1.8-.09.54.22.98.44,1.28.05.07.11.13.16.2.03.08.05.15.06.22,0,.08-.03.19-.05.28-.04.18-.12.38-.23.61l-.14.31c-.08.16-.21.26-.42.33-.2.06-.5.12-.82.02-.44-.16-.82-.48-1.16-.87-.33-.4-.5-.9-.6-1.4-.2-1.01,0-2,.33-2.84.26-.63.61-1.18,1.03-1.67.49-.51,1.03-1.05,1.74-1.38l.04.07Z"/><path class="cls-1" d="m90.52,39.65c-3.42-1.48-7.07-2.47-10.79-2.99-3.73-.52-7.55-.61-11.27-.16-2.72.37-5.4.99-7.97,1.91-2.26.83-4.5,1.77-6.57,3.03-.53.29-1.05.6-1.55.95-.5.34-1.02.66-1.52,1.01-.97.73-1.96,1.44-2.87,2.25-1.87,1.56-3.6,3.31-5.2,5.17-1.62,1.85-3.08,3.83-4.44,5.89-2.42,3.65-4.37,7.64-5.93,11.7-2.01,5.24-3.25,10.72-4.22,16.2-.38,1.71-.41,1.52-.83,0-.18-.76-.48-1.88-.49-3.21-.01-1.33.07-2.89.42-4.53,1.21-5.81,3.3-11.39,6.03-16.66,1.38-2.63,2.92-5.18,4.7-7.59,1.78-2.4,3.77-4.65,5.95-6.71,2.61-2.46,5.5-4.75,8.67-6.64,3.16-1.9,6.61-3.39,10.17-4.32,3.92-1.03,7.98-1.42,11.99-1.32,4.01.11,8.02.69,11.88,1.81,4.76,1.37,9.26,3.6,13.23,6.53,6.03,4.45,10.71,10.56,13.97,17.15,2.57,5.12,4.41,10.49,5.52,16.06.25,1.23.46,2.43.62,3.69.15,1.16.21,2.13.26,2.94.02.81.01,1.47-.03,2.01-.06,1.08-.35,1.71-.71,2.21-.16.23-.31.52-.45.65-.24.22-.47-.14-.75-.96-.16-.41-.25-.93-.35-1.56-.11-.63-.22-1.35-.3-2.17-.64-4.85-1.68-9.75-3.31-14.52-1.6-4.77-3.87-9.37-6.75-13.54-2.18-3.06-4.68-5.9-7.57-8.31-2.89-2.39-6.09-4.42-9.56-5.87l.02-.07Z"/><path class="cls-1" d="m26.92,95.14l-.96-.1c-.17-.03-.33-.04-.51-.08-.25-.03-.53-.11-.78-.18-.51-.15-.99-.37-1.31-.73-.36-.36-.47-.86-.49-1.34.01-.27.07-.54.1-.8.05-.26.16-.52.23-.78.04-.11.1-.22.15-.32l.13-.26.32-.47c.23-.29.49-.55.77-.76,2.03-1.39,4.16-1.47,6.16-1.43.89.03,1.78.03,2.65.15,1.11.12,2.27.31,3.24,1.02.3.23.19.28-.14.33-.33.03-.91.28-1.5.31-1.05-.05-2.11.06-3.15.1-1.04.04-2.08.11-3.09.23-1.22.08-2.44.62-3.09,1.32-.16.14-.3.38-.36.48-.06.1-.1.22-.13.34-.06.17.02.36.19.42.08.04.16.07.25.09.06.01.06.02.16.04.09.02.19.03.29.04.85.1,1.78.11,2.69.11,1.39-.01,2.81-.02,4.23-.08,1.1-.04,2.19-.22,3.35-.23.25,0,.51-.02.77,0,.48.07.8.21.98.43.18.2.25.46.24.79,0,.15,0,.3-.02.44-.09.46-.53.75-1.12.9-1.72.18-3.63.17-5.64.18-1.49,0-3.01-.01-4.61-.1v-.06Z"/><path class="cls-1" d="m47.42,98.84c-.33.86-.95,1.52-1.81,1.86-.3.11-.65.26-1.01.22-.62-.06-1.12-.34-1.49-.74-.4-.38-.53-1.08-.42-1.54.09-.44.28-.78.54-.99.31-.29.68-.43,1.07-.43.12,0,.13.06.12.21-.02.14,0,.43,0,.63-.02.17,0,.33.03.45.02.06.05.12.09.15.02.02.04.04.04.04,0,0,.01,0,.01,0l-.05-.02c-.14-.05-.21-.03-.16-.04h0s0,0,0,0h0s-.23.05-.12.03h0s0,0,0,0h0s0,0,0,0h0s.03-.01.03-.01c.03-.01.06-.03.09-.06.04-.03.07-.08.09-.11,0,0,0,0,0,0,.02-.05-.01.07.01.15h0s0,.01,0,.01h0s-.04-.16-.04-.16h0s0-.01,0-.01c0,0,0,0,.01,0,.01,0,.03,0,.06,0,.05-.01.11-.06.17-.12.03-.04.06-.08.08-.12.02-.02.03-.05.03-.1,0-.06,0-.15-.03-.19,0-.02-.02-.03-.02-.03.05-.07.06-.11.07-.13,0,0,0-.02,0,.07,0-.01,0,.03.03.09.02.05.09.2.14.26.02.03.03.06.03.1,0,.03.02.09,0,.12-.12.07-.36,0-.97-.39l-.41-.26c-.45-.3-.77-.66-.82-1.02-.04-.28.03-.53.18-.79.16-.26.42-.58.87-.76.44-.19.99-.26,1.55-.14.55.12,1.01.41,1.33.73.47.48.69.99.79,1.5.05.26.07.52.06.79,0,.27-.06.56-.13.77h-.07Z"/><path class="cls-1" d="m74.05,95.3c-1.85-.07-3.7-.12-5.55-.14-.68,0-1.35.05-2.03.04-2.39-.05-4.79-.11-7.18-.16-1.07,0-2.14-.02-3.2-.02-.68-.01-1.37-.01-2.06-.06-.34-.04-.69-.05-1.03-.15-.34-.1-.68-.27-.99-.48-.39-.27-.32-.26.07-.48.2-.1.48-.35.79-.51.15-.08.33-.2.5-.26.17-.04.35-.07.54-.07,1.32,0,2.67-.08,4.03-.08,1.36.02,2.74.06,4.12.15,1.66.11,3.38-.07,5.08-.11,1.87-.04,3.74-.04,5.62-.04l3.46.02c1.75,0,3.5.07,5.24.06,1.35-.02,2.68-.16,4.02-.24.3-.01.59-.05.88-.05.55,0,.91.04,1.16.19.25.18.38.41.48.73.05.15.11.29.13.43.04.24-.06.44-.26.64-.21.2-.53.41-.93.45-2.37.34-4.84.35-7.34.33-1.85,0-3.71-.09-5.58-.1v-.06Z"/><path class="cls-1" d="m97.66,97.91c-.31.82-.87,1.31-1.53,1.63-.24.11-.48.26-.78.29-.51.05-1.07-.08-1.43-.38-.37-.28-.66-.67-.79-1.11-.1-.4-.07-.82.07-1.13.15-.41.56-.76,1.01-.7.14.02.13.19.15.41,0,.21.13.52.23.61.22.19.14.06,0,.1.05,0,.19-.1.23-.18.02-.04,0-.03,0,.04v.05s0,.01,0,.01h0s0,.01,0,.01h0s0,0,0,0h0s0-.12,0-.12h0s0-.02,0-.02c0-.03,0,0,0,0,.05.05.22.02.32-.06.06-.03.12-.12.14-.16,0-.02.02-.03.03-.03.04-.02.07-.05.07-.04,0-.01,0,.02-.03.03-.05.02-.12.23-.15.37-.01.02-.01.07-.03.08-.07.04-.19-.08-.67-.5l-.33-.28c-.37-.31-.59-.68-.49-1.01.07-.23.18-.45.34-.65.18-.17.39-.31.66-.41.51-.2,1.36-.23,2.11.28.53.34.89.96.99,1.49.11.54.05.99-.07,1.4h-.06Z"/><path class="cls-1" d="m121.22,89.18l1.16.3c.53.15,1.07.31,1.54.52.98.39,1.66.91,2.02,1.49.18.29.33.61.35,1.02.03.42-.1.81-.28,1.12-.17.34-.47.58-.74.83-.33.22-.69.43-1.1.59l-1.05.28c-.36.11-.68.17-.98.2l-.94.13-.23.03h-.17s-.33.03-.33.03c-3.14.18-6.2.05-9.28-.08-1.36-.07-2.73-.09-4.08-.13-.87-.03-1.74-.07-2.61-.14-.87-.06-1.74-.23-2.57-.57-.5-.39-.42-.36.08-.73.25-.2.59-.36,1-.54.2-.08.42-.19.65-.24.23-.04.46-.06.7-.05,3.46.04,6.93.21,10.44.37,1.05.05,2.12.02,3.19-.06l1.59-.15,1.39-.17c.42-.05.58-.07.81-.11.22-.04.47-.1.66-.28.1-.08.15-.21.11-.32-.05-.1-.13-.18-.22-.24-.19-.13-.41-.22-.66-.31-.17-.06-.26-.09-.56-.17-.3-.08-.68-.17-1.02-.25-.7-.16-1.41-.3-2.12-.42-2.17-.36-4.37-.67-6.57-.82-1.71-.12-3.39-.06-5.08-.05-.37,0-.74.03-1.11.02-.7,0-1.15-.14-1.46-.27-.16-.07-.28-.16-.38-.27-.1-.13-.18-.27-.25-.42-.06-.13-.15-.26-.18-.36-.12-.3.47-.88,1.51-1.01,3.07-.37,6.3-.2,9.54.08,2.41.23,4.82.56,7.28,1.09v.06Z"/><path class="cls-1" d="m79.85,90.07c-2.52-.06-5.05-.1-7.58-.1l-2.77.05c-3.26-.02-6.52-.04-9.78-.06-1.45-.01-2.9.02-4.34.03-1.84,0-3.74.19-5.56-.58-.55-.28-.47-.23.05-.4.25-.07.62-.31,1.03-.41.41-.11.9-.25,1.42-.29,3.69.02,7.45-.07,11.23.03,2.27.06,4.62-.12,6.94-.18,2.55-.06,5.1-.09,7.66-.11h4.72c2.38.01,4.78.1,7.15.18,1.85.07,3.67.05,5.54.26.41.04.82.1,1.24.17.39.08.72.19.98.28.26.11.47.28.62.4.31.25.44.57.44.86,0,.14.03.28,0,.39-.05.18-.25.26-.53.29-.25.01-.67.04-1.15,0-1.45-.23-3.07-.32-4.7-.4-1.64-.08-3.33-.14-5.02-.17-2.52-.06-5.06-.16-7.6-.17v-.05Z"/><path class="cls-1" d="m49.29,52.07c.74-.66,1.53-1.25,2.35-1.8.3-.2.55-.46.86-.64,1.07-.67,2.2-1.26,3.35-1.77.52-.23,1.03-.45,1.54-.67.65-.31,1.42-.44,2.19-.25.23.05.19.14.02.32-.18.17-.41.51-.69.8-.13.09-.24.24-.38.32l-.42.23-.83.51c-.55.37-1.14.66-1.78.93-.75.34-1.38.93-2.05,1.44-.74.56-1.45,1.15-2.17,1.74-.43.37-.88.74-1.27,1.15-.31.3-.62.61-.91.93-.3.32-.58.65-.82,1-.4.54-.65,1.15-.95,1.72-.07.13-.1.27-.19.38-.31.43-.52.51-.96.42-.1-.02-.2-.03-.3-.06-.31-.1-.45-.43-.4-.89.04-.71.33-1.31.6-1.93.29-.61.68-1.17,1.11-1.7.63-.79,1.34-1.5,2.06-2.19l.04.04Z"/><path class="cls-1" d="m19.01,67.42c-.16.03-.28-.12-.39-.31-.04-.06-.03-.23.02-.26.1-.07.2-.14.27-.18.05-.06.92-.27,1.22-.35.29-.08.58-.15.86-.14h1.75c.13.01.25.03.37.07.42.13.83.15,1.24.11.07-.01.14,0,.2-.06.1-.09,1.22-.12,1.38-.08.37.1.75.16,1.13.25.05.01.11-.01.16.06.13.16.24.12.36.15.16.03.33.07.5.12.08.03.17.11.25.16.08.05.05.23.03.25-.07.06,0,.15.01.22,0,.03.01.06,0,.08,0,.02-.23.16-.46.33-.24.18-.49.34-.54.34-.01,0-.36.08-.73.17-.36.06-.74.13-.84.15-.08.02-.17-.02-.25-.04-.03,0-1.19.16-1.24.15-.24-.04-.49,0-.72-.17-.04-.03-.09-.03-.14-.03-.41-.02-.79-.13-1.17-.22-.19-.04-.39-.05-.58-.07-.03,0-.07-.03-.1-.04-.04-.02-.09-.04-.13-.04-.46-.03-.92-.15-1.38-.18-.11,0-.61-.22-.74-.22-.07,0-.29-.2-.35-.19Z"/><path class="cls-1" d="m11.54,74.69c-.22.03-.39-.17-.55-.41-.05-.08-.04-.28.02-.33.14-.09.27-.19.37-.25.08-.11,1.27-.37,1.68-.48.39-.13.79-.16,1.18-.16l2.41-.08c.18,0,.36.01.54.05.61.14,1.23.15,1.85.12.1,0,.21,0,.31-.06.17-.15,1.84,0,2.05.09.52.19,1.05.32,1.57.48.07.02.16,0,.22.1.14.21.31.2.47.24.22.05.45.11.67.2.11.04.21.16.32.24.09.08.02.33-.02.35-.11.07-.04.2-.04.3,0,.04,0,.08,0,.11-.02.05-1.36.48-1.51.49-.02.01-.51.01-1.02.03-.51.01-1.04.04-1.15.05-.11.01-.22-.04-.33-.07-.05,0-1.57.08-1.63.06-.31-.05-.62,0-.92-.19-.06-.04-.12-.03-.19-.03-.54,0-1.07-.1-1.61-.16-.28-.03-.55-.02-.83-.03-.05,0-.1-.03-.15-.04-.06-.02-.13-.04-.19-.04-.66-.03-1.23-.06-1.97-.1-.15,0-.87-.25-1.05-.24-.1.01-.41-.26-.5-.25Z"/><path class="cls-1" d="m3.92,84.54c-.29.02-.51-.17-.7-.39-.06-.07-.04-.27.05-.3.18-.07.36-.14.49-.19.1-.02.48-.1.93-.19.46-.05.98-.11,1.24-.15.51-.07,1.01-.11,1.52-.12,1.03-.05,2.06-.12,3.08-.12.23,0,.46.01.69.05.78.12,1.57.11,2.35.06.13,0,.26,0,.39-.07.21-.11,2.33-.19,2.61-.15.69.11,1.38.16,2.07.24.1.01.2-.02.29.06.21.19.42.15.64.16.3.01.59.03.89.09.15.03.29.13.44.21.13.07.07.36.03.39-.13.09-.02.22,0,.34,0,.04.01.09,0,.12-.01.07-1.69.64-1.88.65-.04,0-2.5.23-2.81.25-.15.02-.3-.02-.45-.05-.08,0-2.06.15-2.14.16-.41-.02-.83.05-1.24-.11-.08-.03-.17-.02-.25-.02-.71.03-1.42-.04-2.13-.09-.36-.03-.73,0-1.09-.03-.07,0-.13-.03-.2-.05-.08-.02-.16-.04-.25-.05-.86-.04-1.72-.17-2.58-.18-.2,0-1.14-.24-1.36-.24-.13-.02-.53-.29-.64-.28Z"/><path class="cls-1" d="m101.84,30.32c.13.14,0,.32-.25.54-.08.07-.36.15-.42.12-.11-.06-.22-.13-.31-.2-.05-.05-.54-.87-.73-1.14-.18-.26-.32-.54-.44-.83-.24-.58-.53-1.14-.75-1.73-.05-.13-.07-.27-.08-.41-.03-.49-.17-.94-.37-1.38-.03-.07-.05-.15-.14-.2-.15-.08-.59-1.3-.59-1.48,0-.43-.05-.86-.06-1.29,0-.06-.05-.11.02-.19.16-.18.09-.29.07-.42-.04-.18-.05-.36,0-.56.04-.11.08-.21.21-.34.1-.11.25-.12.3-.1.1.05.19-.04.27-.08.03-.01.06-.03.09-.03.09-.02.35.17.6.37.22.21.43.44.45.5,0,.01.16.36.33.73.16.37.32.75.36.83.04.08.02.18.02.27,0,.04.49,1.14.5,1.19.05.24.19.46.09.75-.02.06,0,.1.02.15.14.4.2.83.28,1.25.03.22.1.42.15.64,0,.04,0,.08,0,.13,0,.05-.01.11,0,.15.14.5.18,1.02.36,1.51.04.11.02.71.08.84.03.07-.12.38-.06.43Z"/><path class="cls-1" d="m111.15,35.22c.02.18-.23.18-.62.08-.13-.03-.45-.22-.48-.29-.05-.13-.09-.26-.11-.37-.01-.07.26-.93.36-1.23.08-.29.23-.55.39-.79.33-.49.66-1,1.03-1.47.08-.11.18-.2.29-.27.39-.25.7-.58.98-.94.05-.06.11-.11.11-.21-.03-.2.93-1,1.09-1.05.4-.14.77-.3,1.16-.44.05-.02.09-.08.18-.04.22.1.3.01.41-.04.15-.07.32-.12.49-.15.09-.01.21.03.33.06.1.02.21.27.21.3-.01.11.1.18.17.27.02.03.05.07.06.1.01.05-.39,1.02-.44,1.1-.03,0-.91.93-.98,1.06-.04.07-.13.08-.2.11-.04.02-.65.83-.69.84-.17.12-.27.31-.55.33-.05,0-.08.04-.11.07-.23.27-.54.48-.81.72-.14.12-.24.28-.37.41-.02.02-.06.03-.09.05-.04.02-.08.04-.11.07-.27.35-.61.64-.81,1.04-.05.09-.48.38-.53.5-.03.06-.37.1-.36.18Z"/><path class="cls-1" d="m38.22,95.91c-.59,2.02-.14,4.35,1.26,6.03.5.61,1.15,1.08,1.83,1.49,1.2.71,2.64,1.1,4.07.97,1.43-.09,2.85-.67,3.98-1.61,1-.84,1.73-2.02,2.05-3.27.44-1.63.19-3.28-.25-4.88-.13-.5.41-.74,1.14-.5.75.21,1.64,1.09,1.79,2.38.25,2.26-.38,4.6-1.73,6.42-1.35,1.83-3.41,3.07-5.58,3.44-2.57.45-5.44,0-7.57-1.64-1.15-.89-2.09-2.06-2.69-3.37-.59-1.31-.87-2.76-.8-4.19.06-.88.24-1.74.53-2.56.31-.82.73-1.58,1.24-2.29,1.58-2.12,4.13-3.4,6.71-3.53,2-.12,4.04.36,5.76,1.5.38.25.74.51,1.07.83,1.21,1.22,1.24,1.89.89,2.44-.09.13-.16.28-.27.38-.38.34-.94-.04-1.62-.7-2.02-1.99-5.09-2.8-7.72-1.79-.97.38-1.85.96-2.55,1.72-.71.76-1.21,1.71-1.49,2.72h-.06Z"/><path class="cls-1" d="m88.88,95.27c-.87,1.91-.76,4.29.4,6.15.41.68.99,1.24,1.6,1.74,1.09.87,2.46,1.45,3.9,1.53.72.06,1.45,0,2.15-.19.71-.18,1.41-.45,2.02-.85,1.11-.68,1.96-1.76,2.41-2.97.6-1.57.54-3.28.43-4.99-.03-.53.55-.64,1.22-.26.68.36,1.39,1.33,1.36,2.59-.04,2.2-.85,4.5-2.46,6.17-1.6,1.68-3.81,2.58-6.01,2.66-2.61.09-5.4-.74-7.27-2.68-2.08-2.07-2.96-5.17-2.4-7.98.35-1.73,1.21-3.33,2.44-4.55,1.86-1.88,4.57-2.79,7.13-2.58,1.99.12,3.97.78,5.56,2.16l.51.47c.15.17.31.35.45.53.27.35.43.67.57.94.11.28.18.52.21.73.05.41-.09.69-.33.93-.11.11-.22.24-.34.31-.21.12-.45.06-.69-.12-.22-.19-.48-.48-.74-.87-1.6-2.22-4.66-3.3-7.42-2.68-2.03.45-3.82,1.88-4.63,3.84l-.05-.02Z"/></svg>