<svg width="124" height="35" viewBox="0 0 124 35" fill="none" xmlns="http://www.w3.org/2000/svg">
<path opacity="0.7" d="M22.014 0.674438L21.6214 2.97238L23.1104 4.76618L20.8124 4.37364L19.0186 5.86256L19.4112 3.56462L17.9222 1.77082L20.2202 2.16336L22.014 0.674438Z" fill="white"/>
<path opacity="0.7" d="M97.0447 25.8987L96.6522 28.1966L98.1411 29.9904L95.8432 29.5979L94.0494 31.0868L94.4419 28.7889L92.953 26.9951L95.2509 27.3876L97.0447 25.8987Z" fill="white"/>
<path opacity="0.7" d="M115.042 2.09699L114.493 5.31484L116.578 7.82674L113.36 7.27706L110.848 9.36202L111.398 6.14417L109.313 3.63227L112.531 4.18195L115.042 2.09699Z" fill="white"/>
<path d="M107.648 27.1853L109.254 29.4533L112.021 29.7103L109.753 31.3165L109.496 34.0838L107.89 31.8158L105.122 31.5588L107.391 29.9526L107.648 27.1853Z" fill="#8F77E9"/>
<path d="M4.94327 5.6868L3.75383 7.1198L4.06741 8.95554L2.63441 7.7661L0.798672 8.07968L1.98811 6.64668L1.67453 4.81094L3.10753 6.00039L4.94327 5.6868Z" fill="#8F77E9"/>
<path d="M70.2592 2.418L69.0697 3.851L69.3833 5.68674L67.9503 4.4973L66.1146 4.81088L67.304 3.37788L66.9904 1.54214L68.4234 2.73159L70.2592 2.418Z" fill="#8F77E9"/>
<path d="M120.604 22.148L121.938 23.2552L123.647 22.9633L122.539 24.2972L122.831 26.0061L121.497 24.8989L119.789 25.1908L120.896 23.8568L120.604 22.148Z" fill="#E9778B"/>
<path d="M18.3057 28.3962L17.9711 30.3545L19.24 31.8832L17.2817 31.5487L15.753 32.8176L16.0875 30.8593L14.8186 29.3306L16.777 29.6651L18.3057 28.3962Z" fill="#E9778B"/>
</svg>
