<svg width="52" height="64" viewBox="0 0 52 64" fill="none" xmlns="http://www.w3.org/2000/svg">
<path d="M21.7775 25.2051C16.4403 21.1846 10.3323 17.7769 0 17.7769V38.1846C10.3323 38.1846 16.4378 32.2436 21.7775 25.2V25.2051Z" fill="#E31665"/>
<path d="M24.3047 21.7522C32.2545 27.4189 37.1689 34.4071 50.6102 33.7427C50.6102 64.3353 50.6102 64.3291 50.6102 33.7427V2.52258C35.6299 2.52258 29.7057 14.7481 24.3047 21.7522Z" fill="#E31665"/>
<path d="M50.615 38.1873C35.6321 38.1873 29.5241 31.0386 21.7775 25.2027C16.4403 32.2463 10.3323 38.1873 0 38.1873C0 52.2694 11.3278 63.6873 25.2998 63.6873C26.6041 63.6873 27.8982 63.5924 29.154 63.3899C41.3139 61.5232 50.615 50.954 50.615 38.1873Z" fill="#E31665"/>
</svg>
